<svg width="512" height="512" viewBox="0 0 512 512" fill="none" xmlns="http://www.w3.org/2000/svg" role="img" aria-labelledby="title">
  <title id="title">AGFS favicon</title>
  <defs>
    <linearGradient id="bg" x1="256" y1="32" x2="256" y2="480" gradientUnits="userSpaceOnUse">
      <stop stop-color="#111216" />
      <stop offset="1" stop-color="#090A0D" />
    </linearGradient>
    <radialGradient id="glow" cx="0" cy="0" r="1" gradientUnits="userSpaceOnUse" gradientTransform="translate(170 78) rotate(52.298) scale(298.108 333.688)">
      <stop stop-color="#F5F5F4" stop-opacity="0.12" />
      <stop offset="0.55" stop-color="#F5F5F4" stop-opacity="0.03" />
      <stop offset="1" stop-color="#F5F5F4" stop-opacity="0" />
    </radialGradient>
  </defs>

  <rect x="32" y="32" width="448" height="448" rx="108" fill="url(#bg)" />
  <rect x="32" y="32" width="448" height="448" rx="108" fill="url(#glow)" />
  <rect x="33" y="33" width="446" height="446" rx="107" stroke="#F5F5F4" stroke-opacity="0.06" />

  <path
    d="M114 183C114 165.327 128.327 151 146 151H217.705C226.228 151 234.403 154.322 240.499 160.254L258.827 178.086C264.924 184.019 273.099 187.34 281.622 187.34H366C383.673 187.34 398 201.668 398 219.34V318C398 353.346 369.346 382 334 382H178C142.654 382 114 353.346 114 318V183Z"
    fill="#0F1115"
    stroke="#F5F5F4"
    stroke-width="24"
    stroke-linejoin="round"
  />

  <path d="M194 244L240 284L194 324" stroke="#F5F5F4" stroke-width="24" stroke-linecap="round" stroke-linejoin="round" />
  <path d="M266 324H328" stroke="#A1A1AA" stroke-width="24" stroke-linecap="round" />
</svg>
